<?xml version="1.0" standalone="no"?>
<!DOCTYPE svg PUBLIC "-//W3C//DTD SVG 20010904//EN"
 "http://www.w3.org/TR/2001/REC-SVG-20010904/DTD/svg10.dtd">
<svg version="1.0" xmlns="http://www.w3.org/2000/svg"
 width="700.000000pt" height="700.000000pt" viewBox="0 0 700.000000 700.000000"
 preserveAspectRatio="xMidYMid meet">
<metadata>
Created by potrace 1.11, written by Peter Selinger 2001-2013
</metadata>
<g transform="translate(0.000000,700.000000) scale(0.100000,-0.100000)"
fill="#000000" stroke="none">
<path d="M3116 6571 c-85 -100 -136 -201 -151 -301 -4 -25 -8 -46 -10 -48 -1
-1 -27 22 -57 51 -40 40 -68 82 -104 155 -27 56 -52 101 -56 101 -13 2 -71
-156 -83 -224 -11 -66 -11 -135 -1 -180 5 -18 -9 -28 -89 -68 -309 -153 -565
-371 -759 -646 -164 -232 -307 -577 -372 -896 -2 -11 -6 -31 -9 -45 -11 -51
-35 -208 -41 -265 -4 -33 -8 -67 -9 -75 -1 -10 -12 -14 -31 -12 -98 9 -245 5
-289 -7 -141 -39 -265 -113 -378 -225 -88 -87 -102 -105 -183 -228 -126 -191
-249 -495 -298 -733 -14 -66 -41 -219 -51 -290 -13 -87 -13 -450 0 -540 56
-385 204 -608 442 -669 47 -12 48 -13 50 -54 3 -71 32 -142 77 -187 40 -40
101 -72 110 -57 8 14 19 119 21 200 1 45 4 84 6 86 2 3 23 6 45 9 41 4 42 3
47 -32 14 -87 32 -126 80 -172 27 -27 96 -64 102 -57 10 12 24 147 23 227 l-1
100 34 28 c52 43 68 63 97 123 41 85 40 202 -4 390 -18 80 -35 159 -38 175 -2
17 -10 66 -17 110 -7 46 -13 169 -13 290 0 220 12 325 56 485 36 135 99 267
96 203 -1 -23 12 -228 16 -268 2 -16 7 -70 11 -120 4 -49 9 -99 11 -110 2 -10
6 -49 10 -85 3 -36 8 -74 10 -85 2 -11 7 -45 10 -75 3 -30 7 -66 9 -80 2 -14
7 -45 10 -70 8 -70 34 -289 40 -345 3 -27 8 -61 10 -75 2 -14 9 -61 15 -106 6
-44 12 -89 14 -100 2 -10 7 -41 10 -69 15 -117 44 -265 77 -395 21 -81 59
-164 96 -206 13 -15 23 -29 23 -31 0 -2 -15 -26 -34 -53 -70 -101 -85 -209
-46 -313 l21 -57 44 31 c69 49 174 156 238 242 17 23 92 12 81 -12 -33 -75
-46 -131 -41 -182 5 -57 36 -140 64 -171 15 -17 18 -16 57 25 79 84 145 173
202 276 10 19 28 35 39 37 141 20 187 55 254 194 48 98 55 111 96 165 134 181
359 338 582 408 102 32 139 39 251 42 283 9 446 -151 456 -448 1 -38 -2 -96
-6 -130 -20 -145 -19 -225 3 -272 43 -90 127 -126 306 -129 l65 -1 24 -44 c57
-99 169 -245 220 -284 21 -16 23 -15 55 46 30 55 33 71 34 142 0 61 -5 92 -22
132 -28 63 -28 73 -4 73 10 0 37 7 60 15 41 14 41 14 58 -13 71 -114 131 -196
183 -252 60 -63 62 -64 77 -45 59 79 77 182 49 279 -17 56 -56 137 -82 166
-11 14 -8 23 22 65 43 60 81 142 139 295 40 107 150 442 160 486 2 10 13 51
25 89 11 39 22 79 24 90 2 11 13 56 24 100 12 44 23 91 26 105 3 14 17 79 31
145 14 66 27 131 30 145 3 14 7 34 9 45 2 11 7 42 10 69 4 27 9 52 10 55 2 3
7 33 10 66 4 33 9 67 11 75 2 8 7 38 10 65 3 28 10 86 15 130 12 95 23 235 24
288 0 20 5 36 10 34 16 -5 74 -117 105 -203 16 -44 42 -139 57 -210 23 -112
27 -153 28 -319 1 -263 -12 -376 -77 -665 -32 -140 -34 -227 -7 -311 27 -89
89 -156 183 -199 l67 -30 1 -48 c1 -26 2 -51 3 -57 1 -5 5 -38 10 -72 4 -35 9
-63 11 -63 17 0 77 35 104 60 34 33 84 127 75 142 -3 5 17 8 45 7 28 -1 51 -7
52 -13 1 -6 3 -29 4 -51 7 -80 16 -140 24 -153 6 -11 17 -9 52 8 69 34 129
127 129 201 0 19 9 34 29 48 16 12 33 21 38 21 16 0 123 101 154 146 37 54 99
179 105 210 2 13 9 35 14 50 14 36 30 109 37 164 3 25 9 65 13 90 10 53 9 408
-1 465 -4 22 -10 63 -13 91 -3 29 -15 98 -26 155 -125 633 -437 1113 -812
1247 -92 33 -259 42 -355 19 -35 -8 -63 -12 -64 -8 0 3 -2 29 -5 56 -2 28 -9
82 -15 120 -5 39 -12 88 -15 110 -8 59 -14 89 -48 245 -78 358 -256 757 -454
1015 -247 322 -622 564 -1046 676 -60 15 -135 31 -166 35 -30 3 -58 8 -62 11
-26 15 -322 22 -450 11 -54 -5 -69 -3 -82 10 -28 32 -62 141 -72 232 -11 90
-14 92 -58 41z"/>
</g>
</svg>
