<?xml version="1.0" encoding="utf-8"?>
<!-- Generator: Adobe Illustrator 23.0.1, SVG Export Plug-In . SVG Version: 6.00 Build 0)  -->
<svg version="1.1" xmlns="http://www.w3.org/2000/svg" xmlns:xlink="http://www.w3.org/1999/xlink" x="0px" y="0px"
	 viewBox="0 0 244.29 62.33" style="enable-background:new 0 0 244.29 62.33;" xml:space="preserve">
<style type="text/css">
	.st0{fill:#7F04FC;}
	.st1{fill:#662D91;}
	.st2{fill:#AD79B6;}
	.st3{fill:#47244E;}
	.st4{fill:#E67FB8;}
	.st5{fill:#FFFFFF;}
	.st6{fill:#DFECEF;}
	.st7{fill:#231F20;}
</style>
<g id="Layer_2">
</g>
<g id="Layer_1">
	<g>
		<path class="st0" d="M17.43,24.5l0.89,4.62c-2.2-1.82-5.37,4.36-3.27,12.24c1.23,4.62-2.51,4.82-4.76,4.85
			C1.03,46.34,6.13,18.73,17.43,24.5z"/>
		<path class="st1" d="M17.43,24.5c-1.48-0.75-2.85-0.93-4.09-0.69c-1.86,1.98-3.28,4.43-3.86,7.16c1.1-0.55,1.92-2.19,2.74-1.92
			c0.04,0.33-1.4,1.79-0.27,3.29c0.38-1.19,1.37-1.46,1.63-1.72c-0.12,1.68,0.19,3.26,0.81,4.72c0.25-4.67,2.34-7.55,3.93-6.23
			L17.43,24.5z"/>
		<path class="st0" d="M49.44,25.29l-0.89,4.62c2.2-1.82,5.37,4.36,3.27,12.24c-1.23,4.62,2.51,4.82,4.76,4.85
			C65.84,47.13,60.73,19.52,49.44,25.29z"/>
		<path class="st1" d="M53.61,32.07c0.82,0.27,1.92,0.27,2.74,0.27c-0.55-1.64-1.1-3.01-2.74-3.84c1.92,0.82,3.56,1.92,5.21,3.29
			c-0.72-1.87-1.44-4.04-2.59-5.88c-1.86-1.51-4.15-1.98-6.79-0.63l-0.89,4.62c1.39-1.16,3.18,0.92,3.76,4.61
			c0.91,0.01,1.84,0.24,2.67,0.57C54.98,33.99,54.16,33.17,53.61,32.07z"/>
		<path class="st0" d="M49.5,18.18c-0.66-2.07-1.57-4.02-2.79-5.76c-3.74-5.37-11.1-7.91-17.38-6.12
			C15.05,10.39,14.6,24.56,16.26,36.93c0.45,3.36,0.71,6.95,1.53,10.24c0.39,1.59,1.42,2.51,2.97,2.95c1.17,0.32,3.5,0.79,4.57-0.11
			c0.37-0.31,0.54-0.74,0.73-1.16c2.38-5.44,12.92-8.25,11.32,0.52c-0.69,3.8,4.52,2.38,6.69,1.76c1.54-0.44,2.39-1.72,2.94-3.16
			C50.24,39.59,52.48,27.56,49.5,18.18z"/>
		<path class="st1" d="M25.21,42.81c-0.32-0.35-0.6-0.73-0.82-1.15c-0.21-0.41-0.38-0.87-0.46-1.3l-0.21-1.22l-0.25,1.22
			c-0.14,0.71-0.28,1.42-0.42,2.13c-0.67-0.74-1.15-1.64-1.43-2.61c-0.16-0.57-0.27-1.16-0.32-1.75c-0.05-0.59-0.05-1.2,0.01-1.77
			l0.12-1.1l-0.65,0.88c-0.57,0.77-1.14,1.53-1.7,2.31c-0.19-0.81-0.23-1.67-0.2-2.52c0.02-0.51,0.06-1.03,0.13-1.54
			c0.07-0.51,0.16-1.02,0.28-1.53c-0.18,0.49-0.32,0.99-0.44,1.5c-0.12,0.51-0.21,1.02-0.27,1.54c-0.11,1.04-0.11,2.11,0.17,3.16
			l0.12,0.45l0.3-0.37c0.5-0.62,1-1.25,1.49-1.88c0,0.31,0.01,0.61,0.03,0.92c0.05,0.63,0.15,1.26,0.33,1.88
			c0.18,0.61,0.43,1.21,0.77,1.76c0.33,0.55,0.76,1.05,1.24,1.47l0.39,0.33l0.08-0.5c0.1-0.59,0.19-1.18,0.28-1.77
			c0.08,0.17,0.17,0.34,0.26,0.5c0.26,0.43,0.58,0.83,0.95,1.17c0.37,0.34,0.79,0.62,1.23,0.83c0.44,0.22,0.91,0.37,1.39,0.47
			C26.72,44,25.86,43.51,25.21,42.81z"/>
		<path class="st2" d="M21.3,23.26c1.44-1.01,3.33-1.48,5.16-1.65c2.31-0.18,4.63-0.37,6.96-0.4c3.22-0.05,6.47-0.23,9.66,0.31
			c1.82,0.31,4.35,0.45,5.49,2.11c1.29,1.87,0.34,4.86-0.88,6.55c-2.1,2.9-7.5,8-18.64,5.87c-3.87-0.74-11.19-4.4-10.06-9.35
			C19.34,25.15,20.19,24.04,21.3,23.26z"/>
		<path class="st3" d="M26.24,25.21c-0.92,0.55-2.36,1.27-2.6,2.43c-0.25,1.19,0.96,2.45,1.77,3.17c3.89,3.44,9.3,3.37,13.69,0.99
			c1.52-0.82,3.18-1.92,4.11-3.41c0.42-0.68,1.07-1.63,0.49-2.46c-0.18-0.26-0.58-0.44-0.86-0.61c-1.11-0.67-2.52-0.86-3.78-1
			c-1.3-0.14-2.6-0.16-3.9-0.11C35.17,24.2,28.04,24.13,26.24,25.21z"/>
		<path class="st4" d="M27.82,32.42c3.54,1.72,7.75,1.3,11.29-0.62c0.06-0.03,0.11-0.06,0.17-0.1c-0.24-2.84-3.86-5.52-5.88,0.1
			C30,28.54,28.56,28.08,27.82,32.42z"/>
		<path class="st5" d="M40.96,14.56c0,3.95-3.51,7.15-7.83,7.15c-4.33,0-7.83-3.2-7.83-7.15c0-3.95,3.51-7.15,7.83-7.15
			C37.45,7.41,40.96,10.61,40.96,14.56z"/>
		<path class="st6" d="M40.44,16.31c-4.53,6.75-14.43,2.4-15.15-1.78c0,0.01,0,0.02,0,0.04c0,3.95,3.51,7.15,7.83,7.15
			c3.75,0,6.87-2.4,7.65-5.61C40.66,16.17,40.55,16.24,40.44,16.31z"/>
		<path class="st3" d="M29.85,17.45h0.9c-0.25-3.45,3-3.43,2.69,0.02l0.9-0.16C35.9,13.08,28.02,13.32,29.85,17.45z"/>
		<g>
			<path class="st5" d="M38.97,27.53l2.17-2.88c-0.69-0.17-1.4-0.26-2.07-0.33c-0.48-0.05-0.97-0.08-1.45-0.1L38.97,27.53z"/>
			<path class="st5" d="M29.94,24.41c-1.55,0.14-3.02,0.39-3.7,0.8l2.72,2.82L29.94,24.41z"/>
		</g>
		<path class="st1" d="M19.16,48.64c0.78,0.02,1.46,0.23,1.86,1.02c-0.79,1.26-1.71,2.18-2.71,2.88
			C17.51,51.21,17.89,49.91,19.16,48.64z"/>
		<path class="st1" d="M21.91,49.35c1.11-0.14,1.82,0.09,2.05,0.79c-0.64,1.39-1.45,2.47-2.38,3.32
			C20.56,52.21,20.77,50.83,21.91,49.35z"/>
		<path class="st1" d="M42.4,50.66c-0.63-0.31-1.35,0.31-2.05,0.79c0.64,1.39,1.45,2.47,2.38,3.32
			C43.74,53.52,43.53,52.14,42.4,50.66z"/>
		<path class="st1" d="M45.81,49.88c-0.63-0.13-1.31,0.1-2.05,0.79c0.64,1.39,1.45,2.47,2.38,3.32
			C47.16,52.73,46.94,51.36,45.81,49.88z"/>
		<path class="st1" d="M55.57,45.95c-0.27-0.47-0.99-0.38-1.65-0.37c-0.19,1.16-0.12,2.2,0.11,3.14
			C55.21,48.36,55.67,47.39,55.57,45.95z"/>
		<path class="st1" d="M58.09,46.14c-0.35-0.35-0.88-0.49-1.65-0.37c-0.19,1.16-0.12,2.2,0.11,3.14
			C57.74,48.55,58.19,47.57,58.09,46.14z"/>
		<path class="st1" d="M12.22,45.55c0.27-0.47,0.99-0.38,1.65-0.37c0.19,1.16,0.12,2.2-0.11,3.14
			C12.58,47.96,12.12,46.98,12.22,45.55z"/>
		<path class="st1" d="M9.7,45.87c0.35-0.35,0.88-0.49,1.65-0.37c0.19,1.16,0.12,2.2-0.11,3.14C10.05,48.27,9.6,47.3,9.7,45.87z"/>
		<path class="st1" d="M27.14,8.77c-0.97-1.35-1.14-2.98,0-5.07c0.48,1.19,0.98,2.35,2.24,2.87L27.14,8.77z"/>
		<path class="st1" d="M29.18,7.92c-0.54-1.57-0.25-3.18,1.45-4.86c0.12,1.27,0.27,2.53,1.33,3.39L29.18,7.92z"/>
		<path class="st1" d="M25.28,8.96c-3.77,4.04-6.11,8.73-8.22,13.52C17.06,22.48,18.16,12.43,25.28,8.96z"/>
	</g>
	<g>
		<path class="st7" d="M85.26,34.21l0.5-0.36c0.63-0.37,1.07-0.55,1.33-0.55c0.57,0,1.19,0.52,1.85,1.55
			c0.41,0.65,0.61,1.16,0.61,1.55s-0.12,0.71-0.37,0.97c-0.25,0.26-0.54,0.49-0.87,0.69c-0.33,0.2-0.65,0.4-0.95,0.58
			c-0.3,0.18-0.93,0.42-1.87,0.72s-1.85,0.44-2.72,0.44c-0.88,0-1.76-0.12-2.66-0.35c-0.89-0.23-1.82-0.62-2.77-1.16
			c-0.95-0.54-1.8-1.21-2.56-1.99c-0.76-0.78-1.38-1.79-1.87-3.02c-0.49-1.23-0.73-2.56-0.73-4c0-1.44,0.24-2.74,0.72-3.91
			c0.48-1.17,1.09-2.14,1.84-2.9c0.75-0.77,1.6-1.41,2.56-1.92c1.81-1,3.62-1.49,5.45-1.49c0.87,0,1.75,0.13,2.64,0.4
			c0.89,0.27,1.57,0.54,2.03,0.82l0.66,0.39c0.33,0.2,0.59,0.37,0.77,0.5c0.48,0.39,0.72,0.83,0.72,1.31s-0.19,1-0.58,1.54
			c-0.72,1-1.36,1.49-1.94,1.49c-0.33,0-0.8-0.2-1.41-0.61c-0.77-0.63-1.81-0.94-3.1-0.94c-1.2,0-2.38,0.41-3.54,1.24
			c-0.55,0.41-1.01,0.98-1.38,1.71c-0.37,0.74-0.55,1.57-0.55,2.5c0,0.93,0.18,1.77,0.55,2.5c0.37,0.74,0.84,1.32,1.41,1.74
			c1.12,0.81,2.3,1.22,3.51,1.22c0.57,0,1.11-0.07,1.62-0.22C84.67,34.51,85.04,34.36,85.26,34.21z"/>
		<path class="st7" d="M104.62,19.99c0.18-0.29,0.45-0.5,0.8-0.61c0.35-0.11,0.79-0.17,1.31-0.17c0.53,0,0.94,0.05,1.26,0.14
			c0.31,0.09,0.55,0.2,0.72,0.33c0.17,0.13,0.29,0.32,0.36,0.58c0.11,0.31,0.17,0.79,0.17,1.44v8.35c0,2.43-0.76,4.65-2.27,6.64
			c-0.74,0.94-1.69,1.7-2.85,2.28c-1.16,0.58-2.45,0.87-3.86,0.87s-2.69-0.3-3.85-0.89c-1.15-0.59-2.09-1.36-2.81-2.32
			c-1.49-1.95-2.24-4.17-2.24-6.64v-8.33c0-0.44,0.01-0.77,0.04-0.98s0.12-0.46,0.26-0.73c0.15-0.28,0.4-0.47,0.75-0.58
			c0.35-0.11,0.82-0.17,1.41-0.17c0.59,0,1.06,0.06,1.41,0.17c0.35,0.11,0.59,0.3,0.72,0.58c0.22,0.42,0.33,1,0.33,1.74v8.3
			c0,1.13,0.28,2.2,0.83,3.21c0.28,0.52,0.69,0.93,1.24,1.25s1.21,0.47,1.96,0.47c1.35,0,2.35-0.5,3.02-1.49c0.66-1,1-2.15,1-3.46
			v-8.46C104.34,20.8,104.44,20.29,104.62,19.99z"/>
		<path class="st7" d="M112.78,19.22h15.38c0.59,0,1.02,0.07,1.3,0.21c0.28,0.14,0.46,0.35,0.55,0.65c0.09,0.3,0.14,0.68,0.14,1.16
			s-0.05,0.86-0.14,1.15c-0.09,0.29-0.25,0.48-0.47,0.59c-0.33,0.17-0.8,0.25-1.41,0.25h-5.28v13.91c0,0.42-0.01,0.74-0.04,0.94
			c-0.03,0.2-0.11,0.44-0.25,0.71c-0.14,0.27-0.38,0.46-0.73,0.57c-0.35,0.11-0.81,0.17-1.38,0.17c-0.57,0-1.03-0.06-1.37-0.17
			c-0.34-0.11-0.58-0.3-0.72-0.57c-0.14-0.27-0.22-0.51-0.25-0.72s-0.04-0.53-0.04-0.95V23.23h-5.31c-0.59,0-1.02-0.07-1.3-0.21
			c-0.28-0.14-0.46-0.35-0.55-0.65c-0.09-0.29-0.14-0.68-0.14-1.16s0.05-0.86,0.14-1.15c0.09-0.29,0.25-0.48,0.47-0.59
			C111.7,19.3,112.17,19.22,112.78,19.22z"/>
		<path class="st7" d="M136.57,34.63h8.52c0.42,0,0.74,0.01,0.96,0.04c0.21,0.03,0.46,0.12,0.73,0.26c0.5,0.26,0.75,0.98,0.75,2.16
			c0,1.29-0.34,2.05-1.02,2.27c-0.31,0.11-0.79,0.17-1.44,0.17h-10.95c-1.29,0-2.05-0.35-2.27-1.05c-0.11-0.29-0.17-0.77-0.17-1.41
			V21.68c0-0.94,0.17-1.58,0.53-1.92s1.01-0.51,1.99-0.51h10.9c0.42,0,0.74,0.01,0.96,0.04c0.21,0.03,0.46,0.12,0.73,0.26
			c0.5,0.26,0.75,0.98,0.75,2.16c0,1.29-0.34,2.05-1.02,2.27c-0.31,0.11-0.79,0.17-1.44,0.17h-8.49v2.79h5.48
			c0.42,0,0.74,0.01,0.96,0.04c0.21,0.03,0.46,0.12,0.73,0.26c0.5,0.26,0.75,0.98,0.75,2.16c0,1.29-0.35,2.05-1.05,2.27
			c-0.31,0.11-0.79,0.17-1.44,0.17h-5.42V34.63z"/>
		<path class="st7" d="M154.22,35.43h7.52c0.61,0,1.05,0.07,1.33,0.21c0.28,0.14,0.46,0.36,0.55,0.65c0.09,0.29,0.14,0.69,0.14,1.18
			c0,0.49-0.05,0.88-0.14,1.18c-0.09,0.3-0.25,0.5-0.47,0.61c-0.35,0.18-0.83,0.28-1.44,0.28h-9.96c-1.29,0-2.05-0.35-2.27-1.05
			c-0.11-0.29-0.17-0.77-0.17-1.41V21.68c0-0.42,0.01-0.74,0.04-0.95c0.03-0.21,0.11-0.46,0.26-0.73c0.26-0.5,0.98-0.75,2.16-0.75
			c1.29,0,2.06,0.34,2.3,1.02c0.09,0.31,0.14,0.79,0.14,1.44V35.43z"/>
		<path class="st7" d="M170.46,34.63h8.52c0.42,0,0.74,0.01,0.96,0.04c0.21,0.03,0.46,0.12,0.73,0.26c0.5,0.26,0.75,0.98,0.75,2.16
			c0,1.29-0.34,2.05-1.02,2.27c-0.31,0.11-0.79,0.17-1.44,0.17h-10.95c-1.29,0-2.05-0.35-2.27-1.05c-0.11-0.29-0.17-0.77-0.17-1.41
			V21.68c0-0.94,0.17-1.58,0.53-1.92s1.01-0.51,1.99-0.51h10.9c0.42,0,0.74,0.01,0.96,0.04c0.21,0.03,0.46,0.12,0.73,0.26
			c0.5,0.26,0.75,0.98,0.75,2.16c0,1.29-0.34,2.05-1.02,2.27c-0.31,0.11-0.79,0.17-1.44,0.17h-8.49v2.79h5.48
			c0.42,0,0.74,0.01,0.96,0.04c0.21,0.03,0.46,0.12,0.73,0.26c0.5,0.26,0.75,0.98,0.75,2.16c0,1.29-0.35,2.05-1.05,2.27
			c-0.31,0.11-0.79,0.17-1.44,0.17h-5.42V34.63z"/>
		<path class="st7" d="M194.91,20.68l7.47,15.44c0.31,0.63,0.47,1.1,0.47,1.41c0,0.66-0.54,1.26-1.6,1.8
			c-0.63,0.31-1.12,0.47-1.48,0.47c-0.36,0-0.65-0.08-0.88-0.25s-0.4-0.34-0.5-0.53c-0.1-0.18-0.24-0.46-0.43-0.83l-1.44-2.99h-7.66
			l-1.44,2.99c-0.18,0.37-0.33,0.64-0.43,0.8c-0.1,0.17-0.27,0.34-0.5,0.51c-0.23,0.17-0.53,0.26-0.89,0.26
			c-0.36,0-0.85-0.16-1.48-0.47c-1.07-0.52-1.6-1.11-1.6-1.77c0-0.31,0.16-0.78,0.47-1.41l7.47-15.46c0.2-0.42,0.51-0.77,0.93-1.02
			c0.42-0.26,0.85-0.39,1.31-0.39C193.69,19.25,194.43,19.73,194.91,20.68z M192.67,27.32l-1.83,3.79h3.68L192.67,27.32z"/>
		<path class="st7" d="M206.83,19.22l5.12,0.03c2.67,0,5.03,0.96,7.05,2.89c2.03,1.93,3.04,4.3,3.04,7.11s-0.99,5.22-2.97,7.23
			c-1.98,2.01-4.38,3.02-7.21,3.02h-5.06c-1.12,0-1.83-0.23-2.1-0.69c-0.22-0.39-0.33-0.98-0.33-1.77V21.65
			c0-0.44,0.01-0.76,0.04-0.97c0.03-0.2,0.11-0.44,0.26-0.72C204.93,19.47,205.65,19.22,206.83,19.22z M215.55,33.12
			c1.07-0.99,1.6-2.23,1.6-3.72s-0.52-2.74-1.56-3.75c-1.04-1-2.26-1.51-3.67-1.51h-2.66V34.6h2.68
			C213.28,34.6,214.47,34.11,215.55,33.12z"/>
		<path class="st7" d="M223.01,36.67c-0.48-0.59-0.72-1.12-0.72-1.59s0.4-1.09,1.19-1.87c0.46-0.44,0.95-0.66,1.47-0.66
			c0.52,0,1.24,0.46,2.16,1.38c0.26,0.31,0.63,0.61,1.11,0.9c0.48,0.29,0.92,0.43,1.33,0.43c1.71,0,2.57-0.7,2.57-2.1
			c0-0.42-0.24-0.78-0.71-1.06c-0.47-0.29-1.06-0.49-1.76-0.62c-0.7-0.13-1.46-0.34-2.27-0.62c-0.81-0.29-1.57-0.62-2.27-1.01
			c-0.7-0.39-1.29-1-1.76-1.84c-0.47-0.84-0.71-1.85-0.71-3.03c0-1.62,0.6-3.04,1.81-4.25c1.21-1.21,2.85-1.81,4.94-1.81
			c1.11,0,2.12,0.14,3.03,0.43c0.91,0.29,1.54,0.58,1.89,0.87l0.69,0.53c0.57,0.54,0.86,0.99,0.86,1.36c0,0.37-0.22,0.88-0.66,1.52
			c-0.63,0.92-1.27,1.38-1.94,1.38c-0.39,0-0.87-0.18-1.44-0.55c-0.06-0.04-0.16-0.13-0.32-0.28c-0.16-0.15-0.3-0.27-0.43-0.36
			c-0.39-0.24-0.88-0.36-1.48-0.36c-0.6,0-1.1,0.14-1.49,0.43c-0.4,0.29-0.59,0.68-0.59,1.19c0,0.51,0.24,0.92,0.71,1.23
			c0.47,0.31,1.06,0.53,1.76,0.64c0.7,0.11,1.47,0.28,2.3,0.51c0.83,0.23,1.59,0.51,2.3,0.84s1.29,0.91,1.76,1.73
			c0.47,0.82,0.71,1.83,0.71,3.03c0,1.2-0.24,2.25-0.72,3.17c-0.48,0.91-1.11,1.62-1.88,2.12c-1.49,0.98-3.09,1.47-4.79,1.47
			c-0.87,0-1.69-0.11-2.46-0.32s-1.4-0.47-1.88-0.79c-0.98-0.59-1.66-1.16-2.05-1.71L223.01,36.67z"/>
	</g>
</g>
</svg>
