<?xml version="1.0" encoding="utf-8"?>
<!-- Generator: Adobe Illustrator 23.0.1, SVG Export Plug-In . SVG Version: 6.00 Build 0)  -->
<svg version="1.1" xmlns="http://www.w3.org/2000/svg" xmlns:xlink="http://www.w3.org/1999/xlink" x="0px" y="0px"
	 viewBox="0 0 180.15 93.75" style="enable-background:new 0 0 180.15 93.75;" xml:space="preserve">
<style type="text/css">
	.st0{fill:#7F04FC;}
	.st1{fill:#662D91;}
	.st2{fill:#AD79B6;}
	.st3{fill:#47244E;}
	.st4{fill:#E67FB8;}
	.st5{fill:#FFFFFF;}
	.st6{fill:#DFECEF;}
</style>
<g id="Layer_2">
</g>
<g id="Layer_1">
	<g>
		<g>
			<path class="st0" d="M74.42,29l0.87,4.32c-2.15-1.7-5.25,4.08-3.2,11.45c1.2,4.32-2.45,4.51-4.65,4.54
				C58.37,49.43,63.37,23.6,74.42,29z"/>
			<path class="st1" d="M74.42,29c-1.44-0.71-2.78-0.87-4-0.64c-1.82,1.85-3.21,4.14-3.78,6.7c1.07-0.51,1.88-2.05,2.68-1.79
				c0.04,0.31-1.37,1.68-0.27,3.08c0.37-1.11,1.34-1.37,1.6-1.61c-0.12,1.57,0.19,3.05,0.8,4.42c0.24-4.37,2.29-7.06,3.85-5.83
				L74.42,29z"/>
			<path class="st0" d="M105.73,29.74l-0.87,4.32c2.15-1.7,5.25,4.08,3.2,11.45c-1.2,4.32,2.45,4.51,4.65,4.54
				C121.77,50.16,116.78,24.34,105.73,29.74z"/>
			<path class="st1" d="M109.81,36.08c0.8,0.26,1.88,0.26,2.68,0.26c-0.54-1.54-1.07-2.82-2.68-3.59c1.88,0.77,3.49,1.79,5.09,3.08
				c-0.7-1.75-1.41-3.78-2.53-5.5c-1.82-1.41-4.06-1.85-6.64-0.59l-0.87,4.32c1.36-1.08,3.11,0.86,3.68,4.31
				c0.89,0.01,1.8,0.22,2.61,0.53C111.15,37.87,110.35,37.11,109.81,36.08z"/>
			<path class="st0" d="M105.79,23.09c-0.64-1.94-1.54-3.76-2.73-5.39c-3.66-5.03-10.86-7.4-17-5.72
				c-13.96,3.82-14.4,17.07-12.78,28.64c0.44,3.14,0.7,6.5,1.5,9.58c0.39,1.48,1.39,2.35,2.91,2.76c1.14,0.3,3.43,0.74,4.47-0.1
				c0.36-0.29,0.53-0.69,0.71-1.09c2.33-5.09,12.64-7.72,11.08,0.48c-0.68,3.55,4.42,2.23,6.55,1.65c1.51-0.41,2.34-1.61,2.88-2.96
				C106.52,43.11,108.7,31.86,105.79,23.09z"/>
			<path class="st1" d="M82.03,46.12c-0.31-0.33-0.59-0.69-0.8-1.08c-0.21-0.39-0.37-0.82-0.45-1.22l-0.21-1.14l-0.24,1.14
				c-0.14,0.66-0.28,1.33-0.41,2c-0.66-0.69-1.13-1.54-1.39-2.44c-0.16-0.53-0.27-1.08-0.31-1.64c-0.05-0.55-0.05-1.13,0.01-1.66
				l0.12-1.03l-0.63,0.82c-0.56,0.72-1.12,1.43-1.67,2.16c-0.18-0.76-0.23-1.56-0.2-2.36c0.02-0.48,0.06-0.96,0.13-1.44
				c0.07-0.48,0.16-0.95,0.27-1.43c-0.18,0.46-0.32,0.92-0.43,1.4c-0.11,0.47-0.21,0.96-0.27,1.44c-0.11,0.97-0.11,1.98,0.16,2.96
				l0.12,0.42l0.29-0.35c0.49-0.58,0.97-1.17,1.46-1.75c0,0.29,0.01,0.57,0.03,0.86c0.05,0.59,0.15,1.18,0.33,1.75
				c0.18,0.57,0.43,1.13,0.75,1.64c0.32,0.52,0.74,0.98,1.22,1.38l0.38,0.31l0.08-0.47c0.1-0.55,0.18-1.1,0.27-1.65
				c0.08,0.16,0.16,0.32,0.26,0.47c0.26,0.4,0.57,0.78,0.93,1.09c0.36,0.32,0.77,0.58,1.21,0.78c0.43,0.21,0.89,0.35,1.36,0.44
				C83.5,47.24,82.66,46.78,82.03,46.12z"/>
			<path class="st2" d="M78.2,27.84c1.41-0.95,3.26-1.38,5.05-1.54c2.26-0.17,4.53-0.34,6.8-0.38c3.15-0.05,6.33-0.22,9.45,0.29
				c1.78,0.29,4.25,0.42,5.37,1.98c1.26,1.75,0.34,4.54-0.86,6.12c-2.05,2.71-7.33,7.48-18.24,5.49c-3.79-0.69-10.94-4.12-9.84-8.75
				C76.28,29.6,77.11,28.57,78.2,27.84z"/>
			<path class="st3" d="M83.04,29.66c-0.9,0.52-2.3,1.19-2.54,2.27c-0.24,1.11,0.94,2.29,1.74,2.96c3.8,3.22,9.1,3.15,13.39,0.92
				c1.48-0.77,3.11-1.79,4.02-3.19c0.41-0.63,1.05-1.52,0.48-2.3c-0.18-0.24-0.57-0.42-0.84-0.57c-1.08-0.62-2.46-0.81-3.7-0.93
				c-1.27-0.13-2.54-0.15-3.82-0.11C91.77,28.72,84.8,28.65,83.04,29.66z"/>
			<path class="st4" d="M84.58,36.4c3.46,1.61,7.58,1.22,11.04-0.58c0.06-0.03,0.11-0.06,0.17-0.09c-0.24-2.65-3.78-5.17-5.75,0.09
				C86.72,32.77,85.31,32.34,84.58,36.4z"/>
			<path class="st5" d="M97.43,19.7c0,3.69-3.43,6.69-7.66,6.69c-4.23,0-7.66-2.99-7.66-6.69c0-3.69,3.43-6.69,7.66-6.69
				C94,13.02,97.43,16.01,97.43,19.7z"/>
			<path class="st6" d="M96.92,21.34c-4.44,6.31-14.11,2.24-14.82-1.67c0,0.01,0,0.02,0,0.04c0,3.69,3.43,6.69,7.66,6.69
				c3.66,0,6.72-2.25,7.48-5.24C97.14,21.21,97.04,21.27,96.92,21.34z"/>
			<path class="st3" d="M86.56,22.4h0.88c-0.25-3.23,2.93-3.2,2.63,0.02l0.88-0.15C92.49,18.32,84.78,18.54,86.56,22.4z"/>
			<g>
				<path class="st5" d="M95.49,31.83l2.12-2.7c-0.67-0.16-1.37-0.24-2.03-0.31c-0.47-0.05-0.95-0.08-1.42-0.1L95.49,31.83z"/>
				<path class="st5" d="M86.66,28.91c-1.51,0.13-2.95,0.36-3.62,0.75l2.66,2.64L86.66,28.91z"/>
			</g>
			<path class="st1" d="M76.11,51.57c0.76,0.02,1.43,0.21,1.82,0.95c-0.77,1.17-1.67,2.04-2.65,2.69
				C74.49,53.97,74.86,52.76,76.11,51.57z"/>
			<path class="st1" d="M78.8,52.24c1.08-0.13,1.78,0.08,2,0.74c-0.62,1.3-1.42,2.31-2.33,3.1C77.48,54.91,77.69,53.62,78.8,52.24z"
				/>
			<path class="st1" d="M98.84,53.47c-0.62-0.29-1.32,0.29-2,0.74c0.62,1.3,1.42,2.31,2.33,3.1
				C100.16,56.14,99.95,54.85,98.84,53.47z"/>
			<path class="st1" d="M102.18,52.73c-0.62-0.12-1.28,0.1-2,0.73c0.62,1.3,1.42,2.31,2.33,3.1
				C103.5,55.4,103.29,54.11,102.18,52.73z"/>
			<path class="st1" d="M111.73,49.06c-0.27-0.44-0.97-0.35-1.61-0.35c-0.18,1.09-0.12,2.06,0.11,2.94
				C111.38,51.31,111.82,50.4,111.73,49.06z"/>
			<path class="st1" d="M114.2,49.24c-0.34-0.33-0.86-0.46-1.61-0.35c-0.18,1.09-0.12,2.06,0.11,2.94
				C113.85,51.49,114.29,50.58,114.2,49.24z"/>
			<path class="st1" d="M69.32,48.68c0.27-0.44,0.97-0.35,1.61-0.35c0.18,1.09,0.12,2.06-0.11,2.94
				C69.67,50.93,69.23,50.02,69.32,48.68z"/>
			<path class="st1" d="M66.85,48.98c0.34-0.33,0.86-0.46,1.61-0.35c0.18,1.09,0.12,2.06-0.11,2.94
				C67.2,51.23,66.76,50.32,66.85,48.98z"/>
			<path class="st1" d="M83.91,14.29c-0.95-1.26-1.12-2.79,0-4.74c0.47,1.11,0.96,2.2,2.19,2.68L83.91,14.29z"/>
			<path class="st1" d="M85.92,13.49c-0.53-1.47-0.24-2.98,1.41-4.55c0.12,1.19,0.27,2.37,1.3,3.17L85.92,13.49z"/>
			<path class="st1" d="M82.1,14.46c-3.69,3.77-5.97,8.16-8.04,12.65C74.06,27.11,75.13,17.71,82.1,14.46z"/>
		</g>
		<g>
			<path class="st5" d="M22.23,79.53l0.49-0.34c0.61-0.34,1.05-0.52,1.3-0.52c0.56,0,1.16,0.48,1.81,1.45c0.4,0.6,0.6,1.09,0.6,1.45
				s-0.12,0.66-0.37,0.91c-0.24,0.24-0.53,0.46-0.85,0.65c-0.32,0.19-0.64,0.37-0.93,0.54c-0.3,0.17-0.91,0.4-1.83,0.67
				c-0.92,0.28-1.81,0.41-2.67,0.41c-0.86,0-1.72-0.11-2.6-0.32c-0.88-0.22-1.78-0.58-2.71-1.09c-0.93-0.51-1.76-1.13-2.5-1.86
				c-0.74-0.73-1.35-1.67-1.83-2.82c-0.48-1.15-0.72-2.39-0.72-3.74c0-1.34,0.23-2.57,0.7-3.66c0.47-1.1,1.07-2,1.8-2.72
				c0.73-0.72,1.56-1.32,2.5-1.8c1.77-0.93,3.55-1.4,5.33-1.4c0.85,0,1.71,0.13,2.58,0.37c0.87,0.25,1.54,0.5,1.99,0.76l0.65,0.36
				c0.32,0.19,0.58,0.35,0.76,0.47c0.47,0.36,0.7,0.77,0.7,1.23s-0.19,0.94-0.57,1.44c-0.7,0.93-1.34,1.4-1.89,1.4
				c-0.32,0-0.78-0.19-1.38-0.57c-0.76-0.59-1.77-0.88-3.03-0.88c-1.17,0-2.33,0.39-3.46,1.16c-0.54,0.38-0.99,0.91-1.35,1.6
				c-0.36,0.69-0.54,1.47-0.54,2.34c0,0.87,0.18,1.65,0.54,2.34c0.36,0.69,0.82,1.23,1.38,1.63c1.1,0.76,2.25,1.14,3.44,1.14
				c0.56,0,1.09-0.07,1.58-0.21C21.66,79.8,22.02,79.67,22.23,79.53z"/>
			<path class="st5" d="M41.18,66.23c0.18-0.28,0.44-0.47,0.78-0.57c0.34-0.1,0.77-0.16,1.29-0.16c0.51,0,0.92,0.04,1.23,0.13
				c0.31,0.09,0.54,0.19,0.7,0.31c0.16,0.12,0.28,0.3,0.35,0.54c0.11,0.29,0.16,0.74,0.16,1.35v7.81c0,2.28-0.74,4.35-2.22,6.21
				c-0.72,0.88-1.65,1.59-2.79,2.13c-1.14,0.54-2.39,0.82-3.77,0.82s-2.63-0.28-3.76-0.83c-1.13-0.55-2.04-1.28-2.75-2.17
				c-1.46-1.83-2.19-3.9-2.19-6.21v-7.79c0-0.41,0.01-0.72,0.04-0.92s0.11-0.43,0.26-0.69c0.14-0.26,0.39-0.44,0.73-0.54
				c0.34-0.1,0.8-0.16,1.38-0.16c0.58,0,1.04,0.05,1.38,0.16c0.34,0.1,0.58,0.28,0.7,0.54c0.22,0.4,0.32,0.94,0.32,1.63v7.76
				c0,1.05,0.27,2.05,0.81,3c0.27,0.48,0.68,0.87,1.22,1.16c0.54,0.29,1.18,0.44,1.92,0.44c1.32,0,2.3-0.47,2.95-1.4
				c0.65-0.93,0.97-2.01,0.97-3.23v-7.92C40.91,66.98,41,66.51,41.18,66.23z"/>
			<path class="st5" d="M49.16,65.51H64.2c0.58,0,1,0.06,1.27,0.19c0.27,0.13,0.45,0.33,0.54,0.61c0.09,0.28,0.14,0.64,0.14,1.09
				s-0.05,0.81-0.14,1.07c-0.09,0.27-0.24,0.45-0.46,0.56c-0.32,0.16-0.78,0.23-1.38,0.23h-5.17v13.01c0,0.4-0.01,0.69-0.04,0.88
				c-0.03,0.19-0.11,0.41-0.24,0.66c-0.14,0.25-0.37,0.43-0.72,0.53c-0.34,0.1-0.79,0.16-1.35,0.16c-0.56,0-1.01-0.05-1.34-0.16
				c-0.33-0.1-0.57-0.28-0.7-0.53c-0.14-0.25-0.22-0.47-0.24-0.67c-0.03-0.2-0.04-0.5-0.04-0.89V69.26h-5.2
				c-0.58,0-1-0.06-1.27-0.19c-0.27-0.13-0.45-0.33-0.54-0.61c-0.09-0.28-0.14-0.64-0.14-1.09c0-0.45,0.04-0.81,0.14-1.07
				c0.09-0.27,0.24-0.45,0.46-0.56C48.1,65.58,48.56,65.51,49.16,65.51z"/>
			<path class="st5" d="M72.43,79.92h8.33c0.42,0,0.73,0.01,0.93,0.04c0.21,0.03,0.45,0.11,0.72,0.25c0.49,0.24,0.73,0.91,0.73,2.02
				c0,1.21-0.33,1.91-1,2.12c-0.31,0.1-0.78,0.16-1.41,0.16H70.02c-1.26,0-2-0.33-2.22-0.98c-0.11-0.28-0.16-0.72-0.16-1.32V67.81
				c0-0.88,0.17-1.48,0.51-1.8c0.34-0.32,0.99-0.48,1.95-0.48h10.66c0.42,0,0.73,0.01,0.93,0.04c0.21,0.03,0.45,0.11,0.72,0.25
				c0.49,0.24,0.73,0.91,0.73,2.02c0,1.21-0.33,1.91-1,2.12c-0.31,0.1-0.78,0.16-1.41,0.16h-8.31v2.61h5.36
				c0.42,0,0.73,0.01,0.93,0.04c0.21,0.03,0.45,0.11,0.72,0.25c0.49,0.24,0.73,0.91,0.73,2.02c0,1.21-0.34,1.91-1.03,2.12
				c-0.31,0.1-0.78,0.16-1.41,0.16h-5.3V79.92z"/>
			<path class="st5" d="M89.69,80.67h7.36c0.6,0,1.03,0.06,1.3,0.19c0.27,0.13,0.45,0.33,0.54,0.61c0.09,0.28,0.13,0.64,0.13,1.1
				c0,0.46-0.04,0.82-0.13,1.1c-0.09,0.28-0.24,0.47-0.46,0.57c-0.34,0.17-0.81,0.26-1.41,0.26h-9.74c-1.26,0-2-0.33-2.22-0.98
				c-0.11-0.28-0.16-0.72-0.16-1.32V67.81c0-0.4,0.01-0.69,0.04-0.89c0.03-0.2,0.11-0.43,0.26-0.69c0.25-0.47,0.96-0.7,2.11-0.7
				c1.26,0,2.01,0.32,2.25,0.96c0.09,0.29,0.14,0.74,0.14,1.35V80.67z"/>
			<path class="st5" d="M105.58,79.92h8.33c0.42,0,0.73,0.01,0.93,0.04c0.21,0.03,0.45,0.11,0.72,0.25
				c0.49,0.24,0.73,0.91,0.73,2.02c0,1.21-0.33,1.91-1,2.12c-0.31,0.1-0.78,0.16-1.41,0.16h-10.72c-1.26,0-2-0.33-2.22-0.98
				c-0.11-0.28-0.16-0.72-0.16-1.32V67.81c0-0.88,0.17-1.48,0.51-1.8s0.99-0.48,1.95-0.48h10.66c0.42,0,0.73,0.01,0.93,0.04
				c0.21,0.03,0.45,0.11,0.72,0.25c0.49,0.24,0.73,0.91,0.73,2.02c0,1.21-0.33,1.91-1,2.12c-0.31,0.1-0.78,0.16-1.41,0.16h-8.31
				v2.61h5.36c0.42,0,0.73,0.01,0.93,0.04c0.21,0.03,0.45,0.11,0.72,0.25c0.49,0.24,0.73,0.91,0.73,2.02c0,1.21-0.34,1.91-1.03,2.12
				c-0.31,0.1-0.78,0.16-1.41,0.16h-5.3V79.92z"/>
			<path class="st5" d="M129.5,66.88l7.31,14.44c0.31,0.59,0.46,1.03,0.46,1.32c0,0.62-0.52,1.18-1.57,1.68
				c-0.61,0.29-1.1,0.44-1.45,0.44c-0.35,0-0.64-0.08-0.87-0.23c-0.23-0.16-0.39-0.32-0.49-0.49c-0.1-0.17-0.24-0.43-0.42-0.78
				l-1.41-2.79h-7.5l-1.41,2.79c-0.18,0.35-0.32,0.6-0.42,0.75c-0.1,0.16-0.26,0.31-0.49,0.48c-0.23,0.16-0.51,0.25-0.87,0.25
				c-0.35,0-0.83-0.15-1.45-0.44c-1.05-0.48-1.57-1.03-1.57-1.66c0-0.29,0.15-0.73,0.46-1.32l7.31-14.46c0.2-0.4,0.5-0.72,0.91-0.96
				c0.41-0.24,0.83-0.36,1.29-0.36C128.31,65.53,129.03,65.98,129.5,66.88z M127.31,73.09l-1.79,3.54h3.6L127.31,73.09z"/>
			<path class="st5" d="M141.16,65.51l5.01,0.03c2.62,0,4.92,0.9,6.9,2.7c1.98,1.8,2.98,4.02,2.98,6.65c0,2.63-0.97,4.89-2.91,6.76
				c-1.94,1.88-4.29,2.82-7.05,2.82h-4.95c-1.1,0-1.79-0.22-2.06-0.65c-0.22-0.36-0.32-0.91-0.32-1.66V67.78
				c0-0.41,0.01-0.72,0.04-0.91c0.03-0.19,0.11-0.41,0.26-0.67C139.3,65.74,140.01,65.51,141.16,65.51z M149.69,78.51
				c1.05-0.92,1.57-2.08,1.57-3.48s-0.51-2.57-1.53-3.51c-1.02-0.94-2.21-1.41-3.59-1.41h-2.6v9.78h2.62
				C147.47,79.89,148.64,79.43,149.69,78.51z"/>
			<path class="st5" d="M156.99,81.83c-0.47-0.55-0.7-1.05-0.7-1.49c0-0.44,0.39-1.02,1.16-1.75c0.45-0.41,0.93-0.62,1.43-0.62
				c0.51,0,1.21,0.43,2.11,1.29c0.25,0.29,0.61,0.57,1.08,0.84c0.47,0.27,0.9,0.4,1.3,0.4c1.68,0,2.52-0.65,2.52-1.97
				c0-0.4-0.23-0.73-0.69-1c-0.46-0.27-1.03-0.46-1.72-0.58c-0.69-0.12-1.43-0.31-2.22-0.58c-0.79-0.27-1.53-0.58-2.22-0.94
				c-0.68-0.36-1.26-0.94-1.72-1.72c-0.46-0.78-0.69-1.73-0.69-2.83c0-1.52,0.59-2.84,1.77-3.97c1.18-1.13,2.79-1.69,4.83-1.69
				c1.08,0,2.07,0.13,2.96,0.4c0.89,0.27,1.51,0.54,1.85,0.81l0.68,0.49c0.56,0.5,0.84,0.92,0.84,1.27c0,0.35-0.22,0.82-0.65,1.42
				c-0.61,0.86-1.24,1.29-1.89,1.29c-0.38,0-0.85-0.17-1.41-0.52c-0.05-0.03-0.16-0.12-0.31-0.26c-0.15-0.14-0.29-0.25-0.42-0.34
				c-0.38-0.22-0.86-0.34-1.45-0.34c-0.59,0-1.07,0.13-1.46,0.4c-0.39,0.27-0.58,0.64-0.58,1.11c0,0.47,0.23,0.86,0.69,1.15
				c0.46,0.29,1.03,0.49,1.72,0.6c0.68,0.1,1.43,0.26,2.25,0.48c0.81,0.22,1.56,0.48,2.25,0.79c0.69,0.31,1.26,0.85,1.72,1.62
				c0.46,0.77,0.69,1.71,0.69,2.83c0,1.12-0.24,2.11-0.7,2.96c-0.47,0.85-1.08,1.51-1.84,1.98c-1.46,0.91-3.02,1.37-4.68,1.37
				c-0.85,0-1.65-0.1-2.41-0.3c-0.76-0.2-1.37-0.44-1.84-0.74c-0.96-0.55-1.62-1.09-2-1.6L156.99,81.83z"/>
		</g>
	</g>
</g>
</svg>
