<svg xmlns="http://www.w3.org/2000/svg" width="122" height="18" viewBox="0 0 122 18">
  <defs>
    <style>
      .cls-1 {
        fill: #111;
        fill-rule: evenodd;
      }
    </style>
  </defs>
  <path id="OTHER_IMAP_" data-name="OTHER (IMAP)" class="cls-1" d="M2.206,2.818a6.567,6.567,0,0,0-2.07,4.84,6.8,6.8,0,0,0,2.04,5,6.775,6.775,0,0,0,4.98,2.04,6.762,6.762,0,0,0,4.95-2.04,6.689,6.689,0,0,0,2.05-4.92,6.689,6.689,0,0,0-2.05-4.92A6.762,6.762,0,0,0,7.156.778,6.8,6.8,0,0,0,2.206,2.818Zm8.15,1.64a4.539,4.539,0,0,1,1.32,3.28,4.539,4.539,0,0,1-1.32,3.28,4.271,4.271,0,0,1-3.18,1.36,4.348,4.348,0,0,1-3.23-1.36A4.568,4.568,0,0,1,2.616,7.7a4.457,4.457,0,0,1,1.34-3.24,4.336,4.336,0,0,1,3.2-1.36A4.3,4.3,0,0,1,10.356,4.458ZM20,14.438V3.358h2.48V1.038h-7.44v2.32h2.48v11.08H20Zm6.9,0V8.818h4.8v5.62h2.48V1.038H31.7V6.5H26.9V1.038h-2.48v13.4H26.9Zm17.46,0v-2.32h-4.74V8.938h4.54V6.618h-4.54V3.358h4.74V1.038h-7.22v13.4h7.22Zm5,0V9.318l3.58,5.12h3l-3.62-4.96a4.751,4.751,0,0,0,2.1-1,4.192,4.192,0,0,0,1.4-3.3,3.968,3.968,0,0,0-1.42-3.12,5.039,5.039,0,0,0-3.42-1.02h-4.1v13.4h2.48Zm0-11.08h1.6a2.59,2.59,0,0,1,1.73.55,1.829,1.829,0,0,1,.65,1.47,1.886,1.886,0,0,1-.64,1.51,2.612,2.612,0,0,1-1.76.55h-1.58V3.358Zm17,9.8a10.225,10.225,0,0,1-.7-3.74,8.407,8.407,0,0,1,2.52-6.48V0.358a8.289,8.289,0,0,0-2.2,1.54,9.705,9.705,0,0,0-2.05,3.38,11.861,11.861,0,0,0-.75,4.16A11,11,0,0,0,65.5,16.4a6.283,6.283,0,0,0,2.68,2.06v-2.58A6.453,6.453,0,0,1,66.355,13.158Zm6.58,1.28V1.038h-2.48v13.4h2.48Zm5.78,0V4.4l3.48,10.04h2.08L87.755,4.4v10.04h2.48V1.038h-3.44L83.255,11.2l-3.58-10.16h-3.44v13.4h2.48Zm15.98,0,1.48-3.46h4.76l1.42,3.46h2.74l-5.62-13.4h-1.94l-5.58,13.4h2.74Zm3.82-9.9,1.44,4.12h-2.88Zm10.78,9.9V9.318h0.86a16.816,16.816,0,0,0,1.78-.06,3.612,3.612,0,0,0,1.66-.58,4.1,4.1,0,0,0,1.78-3.58,3.891,3.891,0,0,0-3.42-3.98,13.548,13.548,0,0,0-1.76-.08h-3.38v13.4h2.48Zm0-11.08h0.9a5.422,5.422,0,0,1,1.56.16,1.54,1.54,0,0,1,1.14,1.6,1.794,1.794,0,0,1-.32,1.03,1.708,1.708,0,0,1-.84.66A5.159,5.159,0,0,1,110.1,7h-0.8V3.358Zm9.3,2.3a10.224,10.224,0,0,1,.7,3.74,8.407,8.407,0,0,1-2.52,6.48v2.58a7.422,7.422,0,0,0,2.2-1.54,9.478,9.478,0,0,0,2.05-3.37,11.886,11.886,0,0,0,.75-4.15,11.032,11.032,0,0,0-2.32-6.98,6.282,6.282,0,0,0-2.68-2.06v2.58A6.448,6.448,0,0,1,118.594,5.658Z"/>
</svg>
